<?xml version="1.0" standalone="no"?>
<!DOCTYPE svg PUBLIC "-//W3C//DTD SVG 20010904//EN"
 "http://www.w3.org/TR/2001/REC-SVG-20010904/DTD/svg10.dtd">
<svg version="1.0" xmlns="http://www.w3.org/2000/svg"
 width="1536.000000pt" height="1024.000000pt" viewBox="0 0 1536.000000 1024.000000"
 preserveAspectRatio="xMidYMid meet">

<g transform="translate(0.000000,1024.000000) scale(0.100000,-0.100000)"
fill="#000000" stroke="none">
<path d="M3528 6690 c-102 -21 -247 -87 -335 -153 -111 -82 -207 -215 -256
-353 -46 -128 -49 -183 -45 -879 4 -637 4 -652 26 -730 76 -271 266 -474 527
-563 l80 -27 510 -5 510 -5 205 -146 c186 -132 317 -223 409 -286 47 -32 110
-31 149 2 55 46 58 67 36 264 -10 97 -19 180 -19 185 0 5 42 34 94 65 180 107
324 280 384 461 45 136 49 208 45 885 -4 610 -5 633 -26 708 -63 225 -222 411
-443 517 -166 79 -171 80 -1019 79 -682 0 -752 -2 -832 -19z m1593 -606 c60
-30 59 -23 59 -713 0 -376 -4 -640 -10 -655 -18 -49 -53 -61 -181 -61 -104 0
-121 2 -146 21 -15 11 -31 32 -34 45 -13 44 -10 1273 2 1308 19 55 58 71 177
71 74 0 112 -4 133 -16z m-574 -464 c21 -13 35 -31 42 -57 7 -24 11 -185 11
-428 0 -351 -2 -393 -18 -425 -23 -46 -62 -59 -182 -59 -120 0 -159 13 -183
59 -16 32 -17 70 -15 451 4 513 -11 477 198 478 97 1 120 -2 147 -19z m-590
-360 c46 -28 53 -66 53 -303 0 -302 0 -302 -205 -302 -143 0 -176 10 -195 61
-6 14 -10 129 -10 256 0 312 -3 306 200 307 107 1 130 -2 157 -19z"/>
<path d="M9465 6108 c-58 -34 -87 -89 -82 -159 4 -69 31 -109 93 -139 112 -55
240 16 251 138 5 56 -25 124 -70 156 -43 31 -141 33 -192 4z"/>
<path d="M7048 6040 c-280 -47 -520 -265 -600 -546 -29 -103 -31 -292 -4 -399
43 -165 157 -333 289 -424 135 -92 277 -134 457 -133 212 1 397 68 534 193
171 157 250 334 248 559 -1 205 -61 360 -195 505 -117 128 -281 219 -438 244
-73 12 -221 12 -291 1z m265 -276 c161 -41 282 -157 338 -321 33 -97 33 -240
0 -341 -73 -223 -290 -355 -530 -322 -188 26 -330 151 -385 339 -10 34 -16 93
-16 157 0 243 116 420 318 485 72 23 194 24 275 3z"/>
<path d="M8680 5650 c-99 -14 -206 -68 -245 -122 -14 -21 -15 -19 -15 40 l0
62 -145 0 -145 0 0 -781 0 -781 23 6 c12 3 77 6 145 6 l123 0 -3 285 c-2 157
-2 285 -1 285 2 0 24 -15 50 -33 77 -54 127 -69 243 -75 130 -6 197 7 299 59
133 66 238 200 277 350 26 98 22 245 -8 340 -46 142 -143 254 -273 315 -102
48 -199 61 -325 44z m180 -256 c62 -33 94 -70 129 -144 22 -47 26 -68 26 -150
0 -81 -4 -103 -26 -150 -36 -77 -71 -115 -137 -147 -50 -25 -68 -28 -147 -27
-107 1 -164 23 -220 86 -62 68 -79 118 -79 238 -1 95 2 110 27 162 34 69 103
133 166 153 74 24 197 14 261 -21z"/>
<path d="M10447 5649 c-70 -10 -167 -60 -207 -106 l-30 -34 0 61 0 60 -140 0
-140 0 0 -535 0 -535 140 0 140 0 0 309 c0 332 6 394 46 454 33 49 110 87 179
87 105 0 174 -37 214 -115 l26 -50 3 -342 3 -343 130 0 130 0 -3 413 -3 412
-28 61 c-51 110 -153 183 -284 204 -66 11 -94 11 -176 -1z"/>
<path d="M11565 5649 c-66 -4 -141 -14 -167 -22 -142 -45 -238 -152 -238 -264
l0 -33 124 0 123 0 9 32 c6 21 25 43 51 62 35 24 55 30 116 34 174 11 277 -62
277 -195 l0 -33 -192 0 c-106 0 -220 -5 -253 -10 -137 -22 -255 -114 -290
-225 -25 -82 -18 -202 18 -271 48 -95 156 -167 266 -179 31 -4 68 -8 83 -10
53 -6 180 15 232 38 30 14 72 41 95 62 22 21 42 35 42 31 1 -3 3 -10 4 -16 1
-5 3 -28 4 -50 l1 -40 126 0 125 0 -3 398 c-3 348 -6 402 -21 442 -45 113
-111 179 -222 219 -81 29 -167 37 -310 30z m295 -659 c0 -83 -15 -123 -61
-167 -96 -90 -279 -107 -364 -32 -48 43 -64 112 -37 171 36 82 81 97 300 98
l162 0 0 -70z"/>
<path d="M9440 5095 l0 -535 140 0 140 0 0 535 0 535 -140 0 -140 0 0 -535z"/>
</g>
</svg>
